<?xml version="1.0" encoding="utf-8"?>
<!-- Generator: Adobe Illustrator 15.0.0, SVG Export Plug-In . SVG Version: 6.00 Build 0)  -->
<!DOCTYPE svg PUBLIC "-//W3C//DTD SVG 1.1//EN" "http://www.w3.org/Graphics/SVG/1.1/DTD/svg11.dtd">
<svg version="1.1" id="Layer_1" xmlns="http://www.w3.org/2000/svg" xmlns:xlink="http://www.w3.org/1999/xlink" x="0px" y="0px"
	 width="40.688px" height="40.625px" viewBox="0 0 40.688 40.625" enable-background="new 0 0 40.688 40.625" xml:space="preserve">
<g>
	<g>
		<line fill="none" stroke="#FFFFFF" stroke-width="3" stroke-miterlimit="10" x1="9.707" y1="30.629" x2="30.213" y2="10.123"/>
		<line fill="none" stroke="#FFFFFF" stroke-width="3" stroke-miterlimit="10" x1="30.213" y1="30.629" x2="9.707" y2="10.123"/>
	</g>
	<g>
		<path fill="#FFFFFF" d="M20.312,3.375c4.541,0,8.811,1.769,12.021,4.979c6.628,6.629,6.628,17.414,0,24.042
			c-3.211,3.211-7.48,4.979-12.021,4.979s-8.811-1.768-12.021-4.979c-6.628-6.629-6.628-17.414,0-24.042
			C11.502,5.144,15.771,3.375,20.312,3.375 M20.312,0.375c-5.119,0-10.237,1.953-14.143,5.858c-7.811,7.811-7.811,20.474,0,28.285
			c3.905,3.905,9.024,5.857,14.143,5.857c5.119,0,10.237-1.952,14.143-5.857c7.811-7.811,7.811-20.474,0-28.285
			C30.55,2.328,25.432,0.375,20.312,0.375L20.312,0.375z"/>
	</g>
</g>
</svg>
