<?xml version="1.0" encoding="utf-8"?>
<!-- Generator: Adobe Illustrator 15.0.0, SVG Export Plug-In . SVG Version: 6.00 Build 0)  -->
<!DOCTYPE svg PUBLIC "-//W3C//DTD SVG 1.1//EN" "http://www.w3.org/Graphics/SVG/1.1/DTD/svg11.dtd">
<svg version="1.1" id="Layer_1" xmlns="http://www.w3.org/2000/svg" xmlns:xlink="http://www.w3.org/1999/xlink" x="0px" y="0px"
	 width="40px" height="24.792px" viewBox="0 0 40 24.792" enable-background="new 0 0 40 24.792" xml:space="preserve">
<g>
	<path fill="#FFFFFF" d="M40,20.792v4h-1.21c-4.2,0-7.68-3.18-8.23-7.23l-0.06-8.96c0-2.35-1.91-4.27-4.25-4.27
		c-2.37,0-4.25,1.92-4.25,4.27v7.801c0,2.35,1.85,4.39,4.21,4.39H27v4h-0.79c-4.59,0-8.21-3.81-8.21-8.39V8.602
		c0-2.35-2.14-4.27-4.5-4.27c-2.35,0-4.5,1.92-4.5,4.27v7.801c0,2.35,2.27,4.39,4.62,4.39H15v4h-1.38c-4.2,0-7.69-3.21-8.24-7.26
		l-0.07-8.4c0-2.35-1.92-4.34-4.27-4.34H0v-4h1.04c2.32,0,4.51,0.99,6.06,2.64c1.551-2,3.971-3.14,6.58-3.14
		c2.44,0,4.79,1.07,6.351,2.88c1.569-1.81,3.979-2.88,6.42-2.88c4.58,0,8.55,3.73,8.55,8.31v7.801c0,2.35,1.44,4.39,3.79,4.39H40z"
		/>
</g>
</svg>
